# xmcd
#
# Track frame offsets:
#	150
#	18705
#	31517
#	45560
#	60180
#	78950
#	94167
#	105875
#	119912
#	132085
#
# Disc length: 1974
#
# Revision: 2
# Processed by: cddbd v1.5.1PL0 Copyright (c) Steve Scherf et al.
# Submitted via: ExactAudioCopy v0.90a11
# Normalized: r0:TDELIM( - ),TSWAP
#
DISCID=7007b40a
DTITLE=Don Williams and John Conlee - Double Barrel Country
DYEAR=1900
DGENRE=
TTITLE0=Don Williams - I Believe In You
TTITLE1=Don Williams - Some Broken Hearts Never Mend
TTITLE2=Don Williams - Stay Young
TTITLE3=Don Williams - Tulsa Time
TTITLE4=Don Williams - Lord, I Hope This Day Is Good
TTITLE5=John Conlee - Rose Colored Glasses
TTITLE6=John Conlee - Backside Of Thirty
TTITLE7=John Conlee - Lady Lay Down
TTITLE8=John Conlee - Before My Time
TTITLE9=John Conlee - Friday Night Blues
EXTD=
EXTT0=
EXTT1=
EXTT2=
EXTT3=
EXTT4=
EXTT5=
EXTT6=
EXTT7=
EXTT8=
EXTT9=
PLAYORDER=
